<?xml version="1.0" encoding="UTF-8"?>
<svg id="Layer_1" data-name="Layer 1" xmlns="http://www.w3.org/2000/svg" viewBox="0 0 1500 1500">
  <defs>
    <style>
      .cls-1 {
        fill: #e3b34e;
      }
    </style>
  </defs>
  <path d="M934.31,1354.2l-36.51,9.49c-7.78,2.02-15.26,3.32-23.09,4.63l-36.29,6.1c-13.08,2.2-25.93,3.52-39.28,4.42l-25.31,1.71c-19.85,1.34-39.31,1.33-59.16.02l-25.29-1.68c-14.75-.98-30.28-3.19-45.32-5.41-32.6-4.81-63.89-12.49-95.54-21.67-14.26-4.14-45.92-15.61-59.82-21.4-23.5-9.79-66.56-30.45-87.45-44.01l-35.75-23.2c-4.89-3.17-8.98-6.43-13.71-9.88-30.77-22.46-68.72-54.98-94.09-83.3l-22.24-24.82c-17.12-19.1-43.98-59.55-57.96-82.39-7.72-12.62-14.49-24.97-20.89-38.23-3.82-7.92-8.12-15.13-11.44-23.28-5.98-14.66-12.09-28.74-17.34-43.76-19.6-56.07-29.81-105.1-34.77-164.51l-.23-86.14,4.27-40.16c6.23-58.58,31.21-138.42,58.26-191.86,7.89-15.6,14.95-30.86,23.94-45.8,16.29-27.1,33.33-52.85,53.47-77.04l21.86-26.26,48.83-48.25c9.69-9.58,20.05-17.38,30.82-25.9,56.66-44.81,124.39-82.22,192.96-105.65,15.35-5.25,30.27-9.59,45.92-13.89,41.42-11.38,102.1-20.66,144.91-21.77,18.71-.48,36.62-1.07,55.06.11l36.48,2.34c7.93.51,46.38,5.74,53.92,7.41l48.65,10.73c17.64,3.89,62.68,19.45,80.39,26.59,30.03,12.11,68.94,31.25,96.32,48.13,22.99,14.17,44.76,28.76,65.89,45.44,15.84,12.51,44.39,36.87,57.84,50.92l22.59,23.61c9.91,10.35,18.12,21.57,27.29,32.64,13.24,15.98,31.55,42.97,42.67,60.9,14.86,23.95,32.1,57.9,43.33,83.82,12.73,29.37,32.39,87.4,37.54,118.17l7.96,47.62c.22,1.34,4.18,42.21,4.18,42.16l.04,84.36-1.97,18.95c-1.34,12.87-2.95,25.28-5.18,38.02l-4.58,26.15c-5.29,30.17-15.51,58.42-25.82,87.33-6.52,18.3-14.58,35.2-22.77,52.69-5.53,11.81-11.35,22.21-17.93,33.57-20.76,35.89-44.13,69.52-71.36,100.74-3.04,3.49-5.28,6.81-8.39,10.08l-21.2,22.38c-4.09,4.32-8.12,8.52-12.52,12.51l-19.63,17.79c-28.21,25.56-80.89,62.8-114.53,80.58-14.98,7.92-29.23,15.92-44.6,23.03-14.1,6.52-27.74,12.67-42.47,17.71l-50.94,17.42ZM829.84,1302.69c21.68-2.8,55.95-10.18,76.42-16.21,44.96-13.24,77.7-25.54,119.08-47.89,23.94-12.93,61-35.47,81.73-52.36l33.03-26.93,35.98-36.3c25.1-25.32,50.24-58.84,69.22-89.07,22.25-35.42,47.6-89.98,58.74-130.08,13.42-48.31,18.92-80.54,21.79-130.86.82-14.39.2-28.26.11-42.64-.09-15.12-3.4-46.36-5.79-61.7-4.6-29.5-9.19-49.64-17.34-78.23-5.1-17.87-15.7-46.71-23.18-63.83-5.14-11.75-10.46-22.68-16.27-34.13-14.58-28.78-47.21-81.14-68.13-104.23l-17.03-18.8c-6.54-7.22-12.61-14.39-19.88-20.99l-32.37-29.4c-26.08-23.69-68.55-52.05-99.51-69.23-18.13-10.06-54.7-26.4-74.34-33.66-13.26-4.9-26.15-9.38-39.79-13.25-24.35-6.9-65.31-16.6-89.82-18.81l-53.82-4.85-49.71.36c-24.78.18-68.69,6.57-93.45,11.72-14.31,2.97-28,6.13-42.06,10.17-23.65,6.78-57.48,18.94-79.92,29.02-12.96,5.82-25.12,12.08-37.59,18.74-23.86,12.74-64.88,39.29-85.55,56.48-11.37,9.46-22.36,18.34-33.13,28.64-27.8,26.56-52.53,55.32-75.09,86.45-12.45,17.19-31.57,47.6-41.16,66.26-7.45,14.51-14.07,28.79-20.46,43.79-14.47,34.01-28.35,81.04-34.78,117.45-2.49,14.09-4.33,27.74-5.8,42.02-1.82,17.77-3.98,55.09-2.99,72.24.88,15.28,1.24,30.01,3.04,45.23,7.45,62.94,18.82,103.16,43.42,161.04,13.77,32.39,43.88,83.59,65.97,110.67l28.13,34.49,43.46,43.46,32.45,26.78c22.19,18.31,62.33,43.28,88.07,57.09,16.14,8.66,52.71,24.86,70.03,31.17,31.57,11.49,63.08,20.25,96.11,26.5,18.65,3.53,61.47,9.07,79.57,9.09l55.73.04c19.22.01,37.38-2.9,56.86-5.42Z"/>
  <g>
    <path class="cls-1" d="M829.84,1302.69c-19.49,2.52-37.64,5.44-56.86,5.42l-55.73-.04c-18.1-.01-60.92-5.56-79.57-9.09-33.03-6.25-64.54-15.01-96.11-26.5-17.32-6.31-53.89-22.51-70.03-31.17-25.74-13.81-65.88-38.78-88.07-57.09l-32.45-26.78-43.46-43.46-28.13-34.49c-22.09-27.08-52.2-78.28-65.97-110.67-24.6-57.87-35.97-98.1-43.42-161.04-1.8-15.21-2.16-29.94-3.04-45.23-.99-17.14,1.17-54.47,2.99-72.24,1.46-14.28,3.31-27.94,5.8-42.02,6.43-36.41,20.31-83.44,34.78-117.45,6.38-15,13-29.29,20.46-43.79,9.58-18.66,28.7-49.07,41.16-66.26,22.56-31.12,47.29-59.88,75.09-86.45,10.77-10.29,21.76-19.18,33.13-28.64,20.67-17.19,61.69-43.73,85.55-56.48,12.47-6.66,24.63-12.93,37.59-18.74,22.44-10.07,56.27-22.23,79.92-29.02,14.06-4.03,27.75-7.19,42.06-10.17,24.76-5.14,68.67-11.53,93.45-11.72l49.71-.36,53.82,4.85c24.52,2.21,65.48,11.91,89.82,18.81,13.64,3.87,26.53,8.35,39.79,13.25,19.64,7.26,56.2,23.6,74.34,33.66,30.95,17.18,73.43,45.54,99.51,69.23l32.37,29.4c7.27,6.6,13.34,13.77,19.88,20.99l17.03,18.8c20.92,23.09,53.55,75.46,68.13,104.23,5.8,11.45,11.13,22.38,16.27,34.13,7.48,17.12,18.08,45.96,23.18,63.83,8.16,28.59,12.74,48.73,17.34,78.23,2.39,15.34,5.7,46.58,5.79,61.7.09,14.37.71,28.25-.11,42.64-2.87,50.33-8.37,82.56-21.79,130.86-11.14,40.1-36.5,94.65-58.74,130.08-18.99,30.23-44.13,63.76-69.22,89.07l-35.98,36.3-33.03,26.93c-20.73,16.9-57.78,39.44-81.73,52.36-41.39,22.35-74.12,34.64-119.08,47.89-20.47,6.03-54.74,13.4-76.42,16.21ZM1079.07,1133.11l29.58-25.02c6.61,1.7,12.33,4.98,18.91,5.46,4.5.33,9.71,1,14.16-.13,5.18-1.32,11.05-2.81,15.57-5.8,16.66-11.03,21.4-29.04,15.32-47.97-1.35-4.2-3.51-6.83-5.29-10.71-2.17-4.73,12.96-21.22,18.03-28.94,16.77-25.53,31.53-51.46,43.74-79.56,5.19-11.96,9.97-23.38,14.03-35.75,8.23-25.15,16.66-55.33,20.25-81.43,1.92-13.96,3.81-27.54,4.25-41.64,1.86-59.5,0-89.78-12.89-147.67-3.36-15.11-14.35-49.44-20.27-63.95-5.46-13.39-11.18-26.15-17.39-39.21-7.68-16.15-22-42.23-32.32-56.5l-32.62-45.11,8.02-11.41c4.38-6.23,6.29-20.19,4.51-26.98-2.25-8.59-6.4-17.36-13.06-23.51-4.04-3.73-10.65-7.47-16.14-8.59-7.29-1.48-15.45-1.14-22.59-.09-7.42,1.09-17.14,12.26-24.43,5.66-9.13-8.27-18.19-15.86-28.27-23.07-10.31-7.37-19.87-14.82-30.73-21.52-20.84-12.85-41.76-24.27-63.9-34.93-13.26-6.39-26.44-11.32-40.2-16.47-23.84-8.91-51.81-16.68-76.79-21.73-12.73-2.58-54.25-8.67-65.99-8.66l-75.74.11c-20.34.03-65.18,8.04-85.92,13.06-15.28,3.7-29.8,8.07-44.71,12.96-20.79,6.81-55.85,21.56-75.14,31.81-14.01,7.44-27.02,15.36-40.45,23.9-19.69,12.52-37.56,26.2-55.29,41.31-11.87,10.12-23.4,19.8-34.02,31.12l-19,20.26c-30.87,32.92-66.92,90.99-84.83,132.68-7.07,16.45-13.08,32.72-19.02,49.63-10.02,28.54-22.18,87.21-23.09,116.85-.76,24.92-.65,49.19-.02,74.1.47,18.48,6.97,56.63,11.48,75.36,8.13,33.76,14.48,49.77,27.46,81.31,15.32,37.23,45.14,84.16,71.27,114.89,7.43,8.74,14.6,17.06,22.55,25.35,28.02,29.22,38.12,38.77,70.67,63.32,26.93,20.31,67.22,43.76,98.07,57.61,21.89,9.83,52.88,21.01,75.93,27.68,27.5,7.96,81.38,18.06,109.35,18.58,21.97.41,43.25.71,65.24-.07,22.76-.81,59.1-6.45,81.59-11.43,24.99-5.53,57.2-14.86,80.75-24.53,48.95-20.1,98.87-46.38,139.39-80.64Z"/>
    <path d="M1079.07,1133.11c-40.52,34.26-90.44,60.55-139.39,80.64-23.55,9.67-55.77,19-80.75,24.53-22.48,4.98-58.83,10.62-81.59,11.43-21.99.79-43.27.49-65.24.07-27.96-.52-81.85-10.63-109.35-18.58-23.05-6.67-54.05-17.86-75.93-27.68-30.85-13.85-71.14-37.3-98.07-57.61-32.56-24.55-42.66-34.1-70.67-63.32-7.95-8.29-15.12-16.62-22.55-25.35-26.14-30.73-55.95-77.66-71.27-114.89-12.98-31.54-19.33-47.55-27.46-81.31-4.51-18.74-11.01-56.89-11.48-75.36-.63-24.91-.74-49.18.02-74.1.91-29.64,13.07-88.32,23.09-116.85,5.94-16.91,11.95-33.17,19.02-49.63,17.9-41.69,53.96-99.76,84.83-132.68l19-20.26c10.62-11.32,22.15-21,34.02-31.12,17.73-15.12,35.6-28.79,55.29-41.31,13.43-8.54,26.44-16.45,40.45-23.9,19.29-10.24,54.35-24.99,75.14-31.81,14.92-4.89,29.44-9.26,44.71-12.96,20.74-5.02,65.58-13.03,85.92-13.06l75.74-.11c11.75-.02,53.26,6.08,65.99,8.66,24.98,5.05,52.96,12.82,76.79,21.73,13.75,5.14,26.94,10.08,40.2,16.47,22.13,10.66,43.06,22.08,63.9,34.93,10.87,6.7,20.43,14.15,30.73,21.52,10.08,7.21,19.14,14.8,28.27,23.07,7.29,6.6,17.01-4.56,24.43-5.66,7.14-1.05,15.3-1.39,22.59.09,5.49,1.11,12.1,4.86,16.14,8.59,6.66,6.15,10.8,14.92,13.06,23.51,1.78,6.79-.13,20.75-4.51,26.98l-8.02,11.41,32.62,45.11c10.32,14.27,24.63,40.34,32.32,56.5,6.21,13.06,11.93,25.81,17.39,39.21,5.92,14.52,16.9,48.85,20.27,63.95,12.89,57.89,14.75,88.17,12.89,147.67-.44,14.1-2.32,27.68-4.25,41.64-3.6,26.1-12.02,56.28-20.25,81.43-4.05,12.38-8.83,23.8-14.03,35.75-12.21,28.1-26.97,54.03-43.74,79.56-5.07,7.71-20.2,24.21-18.03,28.94,1.78,3.88,3.94,6.51,5.29,10.71,6.08,18.93,1.35,36.95-15.32,47.97-4.52,2.99-10.39,4.49-15.57,5.8-4.45,1.13-9.66.46-14.16.13-6.59-.48-12.3-3.76-18.91-5.46l-29.58,25.02ZM1079.59,469.97l29.43-26.93,33.94-31.24c5.73-9.48,6.31-21.53-1.81-29.38-7.23-6.99-12.35-6.04-21.43-7.03l-11.65,6.07-198.41,185.94-19.35,17.47c-1.83,1.65-.65,4.2.76,5.61l23.06,23.04c2.04,2.04,4.54,3.37,7.73,3.78l157.72-147.32ZM787.83,553.58l-.03-134.59c-2.43-2.91-4.47-4.72-7.19-7.32-6,.61-12.85-1.07-18.68.74-2.53.91-5.93,6.07-5.93,9.04l-.11,130.95,31.94,1.19ZM715.14,1042.12c1.73-3.17,4.23-7.5,4.24-10.87l.09-55.93c0-5.52-2.04-11.85-6.34-15.34-3.01-2.45-7.42-6.09-11.16-6.76-8-1.44-15.66-1.59-23.97-1.73l-104.28-1.71c-1.69-.03-3.53-.92-3.53-2.93l.02-419.85c-2.88-2.56,26.71-4.88,26.14-4.87l104.17-1.95c10.4-.19,18.86-15.52,18.87-23.23l.07-51.28c0-3.66-1.23-9.29-3.27-12.12-4.98-6.89-14.2-13.09-23.5-13.09l-227.66-.07c-8.54,0-16.92,9.46-19.44,16.61l-.31,83.15c-3.56.81-7,1.45-10.63,1.57l-52.56,1.7c-14.46.47-27.61,5.12-41.46,8.7-11.38,11.17-10.28,5.54-15.6,21.94l-.02,383.17c0,3.26.68,6.08,1.79,8.64,6.33,14.63,4.44,10.05,17.03,18.71l14.82,2.6,86.67.18.09,65.88c0,7.07,4.58,11.51,9.5,16.25,3.68,1.13,7.41,3.42,11.96,3.42l230.79-.06c4.49,0,14.8-5.87,17.47-10.75ZM409.17,510.02v-83.44c-2.59-5.58-17.2-2.97-23.26-3.29-1.1,2.05-3.81,3.76-4.26,6.15l.08,80.71,27.44-.13ZM806.99,901.76c12.62-2.55,33.44-8.98,44.69-14.53,10.95-5.4,30.19-17.85,39.05-26.05,6.84-6.33,13.43-12.78,18.93-20.26l14.77-20.11,11.28-24.91c4.34-9.6,9.48-33.3,10.03-44.73,1.31-27.34-.26-48.19-10.16-73.95-5.19-13.5-14.96-32.09-23.97-43.02-13.14-15.93-27.94-29.69-45.57-40.42-11.97-7.28-34.85-18.26-47.8-20.89l-22.67-4.61-44.35.37c-9.37.08-32.2,6.52-41.41,9.98-19.92,7.49-42.37,21.38-57.85,35.96-10.2,9.61-17.69,20.86-26.52,31.75l-11.51,22.2c-4,7.71-7.09,16.01-8.65,24.59l-4.73,25.89.27,33.99c.03,3.88.54,7.8,1.48,11.45l7.11,27.67,11.61,24.03c7.25,15.01,28.7,39.67,42.05,49.43l20.01,14.63,30.75,14.64,27.67,7.02c7.52,1.91,15.21,2.27,22.99,2.88,11.86.92,30.86-.63,42.52-2.98ZM1177.72,739.4c.96-8.39,1.9-14.09-5.17-19.48-3.31-2.53-7.32-2.58-11.52-3.64l-188.88,1.42-.08,31.97,83.83-.02,106.98-1.31c8.04-.1,9.74-2.61,14.84-8.94ZM1139.58,1094.6c11.48-3.11,17.36-14.53,15-25.56-.69-3.24-2.2-7.38-4.1-10.23l-54.77-48.82-44.1-38.58-24.85-23.01-26.18-23.29-26.47-23.24c-8.48-7.44-16.83-14.34-25.21-21.96l-23.54-21.42c-1.16-1.05-3.45-.87-4.69-1.06-1.44-.21-1.77,1.88-2.89,2.94l-21.89,20.72c-1.87,1.77-2.65,4.06-3.43,6.75l42.77,37.13,42.24,37.74,30.29,27.33,44.38,39.97,28.9,26,33.58,30.63c3.58,3.27,8.31,6.18,12.84,7.88,3.1,1.17,8.55,1.04,12.12.07ZM780.68,1056.85c2.85-1.65,4.98-4.71,7.15-7.06l-.02-130.47-31.9.1v129.1s7.19,8.73,7.19,8.73c5.73-.25,11.65.77,17.58-.39ZM403.82,1055.49l6.77-5.32.02-69.82h-27.39c-1.57,3.43-1.67,6.67-1.67,10.29l.07,58.29c0,1.81,1.81,5.17,3.59,5.36,6.19.68,12.22,1.56,18.61,1.2Z"/>
    <g>
      <path class="cls-1" d="M806.99,901.76c-11.65,2.36-30.65,3.9-42.52,2.98-7.78-.6-15.47-.97-22.99-2.88l-27.67-7.02-30.75-14.64-20.01-14.63c-13.35-9.76-34.8-34.42-42.05-49.43l-11.61-24.03-7.11-27.67c-.94-3.66-1.44-7.58-1.48-11.45l-.27-33.99,4.73-25.89c1.57-8.58,4.65-16.87,8.65-24.59l11.51-22.2c8.83-10.89,16.32-22.15,26.52-31.75,15.48-14.58,37.94-28.46,57.85-35.96,9.21-3.46,32.04-9.9,41.41-9.98l44.35-.37,22.67,4.61c12.95,2.63,35.83,13.61,47.8,20.89,17.64,10.73,32.43,24.49,45.57,40.42,9.01,10.93,18.79,29.52,23.97,43.02,9.9,25.76,11.47,46.61,10.16,73.95-.55,11.43-5.69,35.14-10.03,44.73l-11.28,24.91-14.77,20.11c-5.5,7.49-12.09,13.94-18.93,20.26-8.86,8.2-28.1,20.65-39.05,26.05-11.25,5.55-32.07,11.98-44.69,14.53ZM916.99,735.92c0-79.28-64.27-143.55-143.55-143.55s-143.55,64.27-143.55,143.55,64.27,143.55,143.55,143.55,143.55-64.27,143.55-143.55Z"/>
      <path class="cls-1" d="M1079.59,469.97l-157.72,147.32c-3.19-.41-5.69-1.74-7.73-3.78l-23.06-23.04c-1.42-1.42-2.59-3.96-.76-5.61l19.35-17.47,198.41-185.94,11.65-6.07c9.08.98,14.19.04,21.43,7.03,8.12,7.85,7.53,19.9,1.81,29.38l-33.94,31.24-29.43,26.93Z"/>
      <path class="cls-1" d="M1139.58,1094.6c-3.56.96-9.01,1.09-12.12-.07-4.53-1.7-9.26-4.61-12.84-7.88l-33.58-30.63-28.9-26-44.38-39.97-30.29-27.33-42.24-37.74-42.77-37.13c.78-2.69,1.56-4.98,3.43-6.75l21.89-20.72c1.12-1.06,1.45-3.15,2.89-2.94,1.24.18,3.54,0,4.69,1.06l23.54,21.42c8.38,7.62,16.73,14.51,25.21,21.96l26.47,23.24,26.18,23.29,24.85,23.01,44.1,38.58,54.77,48.82c1.9,2.85,3.4,6.99,4.1,10.23,2.36,11.03-3.52,22.45-15,25.56Z"/>
      <path class="cls-1" d="M1177.72,739.4c-5.1,6.33-6.8,8.84-14.84,8.94l-106.98,1.31-83.83.02.08-31.97,188.88-1.42c4.2,1.06,8.21,1.11,11.52,3.64,7.06,5.39,6.13,11.09,5.17,19.48Z"/>
      <path class="cls-1" d="M787.83,553.58l-31.94-1.19.11-130.95c0-2.97,3.4-8.13,5.93-9.04,5.83-1.81,12.67-.13,18.68-.74,2.72,2.6,4.76,4.41,7.19,7.32l.03,134.59Z"/>
      <path class="cls-1" d="M780.68,1056.85c-5.93,1.16-11.86.14-17.58.39l-7.18-8.73v-129.1s31.9-.1,31.9-.1l.02,130.47c-2.17,2.35-4.3,5.41-7.15,7.06Z"/>
      <circle cx="773.43" cy="735.92" r="143.55"/>
      <g>
        <path class="cls-1" d="M715.14,1042.12c-2.67,4.89-12.98,10.75-17.47,10.75l-230.79.06c-4.55,0-8.29-2.29-11.96-3.42-4.92-4.75-9.49-9.19-9.5-16.25l-.09-65.88-86.67-.18-14.82-2.6c-12.59-8.66-10.7-4.08-17.03-18.71-1.11-2.57-1.79-5.38-1.79-8.64l.02-383.17c5.32-16.41,4.21-10.77,15.6-21.94,13.85-3.58,27-8.23,41.46-8.7l52.56-1.7c3.63-.12,7.07-.76,10.63-1.57l.31-83.15c2.52-7.15,10.91-16.61,19.44-16.61l227.66.07c9.3,0,18.53,6.21,23.5,13.09,2.05,2.83,3.28,8.46,3.27,12.12l-.07,51.28c-.01,7.71-8.47,23.03-18.87,23.23l-104.17,1.95c.57-.01-29.02,2.31-26.14,4.87l-.02,419.85c0,2,1.84,2.9,3.53,2.93l104.28,1.71c8.31.14,15.98.29,23.97,1.73,3.74.67,8.14,4.32,11.16,6.76,4.3,3.49,6.35,9.82,6.34,15.34l-.09,55.93c0,3.37-2.5,7.7-4.24,10.87ZM383.01,758.84c0-2.56-1.72-3.46-3.46-3.46h-21.84c-2.48.03-4.4,1.28-5.2,3.81v118.26s94.5,0,94.5,0v-268.49s-44.84-1.36-44.84-1.36l-34.66,1.18c-4.62.89-9.05.53-13.62,1.96l.16,114.14c9.72.31,18.32.58,27.57-.16l1.5-100.36c.02-1.43,1.04-3.72,2.51-3.61l22.03,1.54v240.31s-24.5-.23-24.5-.23l-.15-103.53Z"/>
        <path class="cls-1" d="M409.17,510.02l-27.44.13-.08-80.71c.44-2.39,3.16-4.1,4.26-6.15,6.06.32,20.67-2.29,23.25,3.29v83.44Z"/>
        <path class="cls-1" d="M403.82,1055.49c-6.38.36-12.42-.52-18.61-1.2-1.78-.19-3.58-3.55-3.59-5.36l-.07-58.29c0-3.63.1-6.86,1.67-10.28h27.39s-.02,69.81-.02,69.81l-6.77,5.32Z"/>
        <path d="M383.01,758.84l.15,103.53,24.49.23v-240.31s-22.02-1.54-22.02-1.54c-1.47-.1-2.49,2.18-2.51,3.61l-1.5,100.36c-9.25.74-17.86.47-27.57.16l-.16-114.14c4.57-1.43,9-1.06,13.62-1.96l34.66-1.18,44.83,1.36v268.49s-94.49,0-94.49,0v-118.26c.79-2.54,2.71-3.79,5.19-3.81h21.84c1.73,0,3.45.9,3.46,3.46Z"/>
      </g>
    </g>
  </g>
</svg>